<?xml version="1.0" encoding="iso-8859-1"?>
<!-- Generator: Adobe Illustrator 19.0.0, SVG Export Plug-In . SVG Version: 6.00 Build 0)  -->
<svg version="1.1" id="Capa_1" xmlns="http://www.w3.org/2000/svg" xmlns:xlink="http://www.w3.org/1999/xlink" x="0px" y="0px"
	 viewBox="0 0 512 512" style="enable-background:new 0 0 512 512;" xml:space="preserve">
<g>
	<g>
		<path d="M256,0C117.667,0,0,109.779,0,256s119,256,256,256c132.333,0,256-104.333,256-256C512,117.072,402.333,0,256,0z
			 M190.666,39.642C211.36,33.381,233.291,30,256,30c48.228,0,92.968,15.194,129.706,41.033l-195.04,112.606V39.642z
			 M160.667,51.123V276.4L35.951,204.395C51.901,136.367,98.672,80.086,160.667,51.123z M30,256c0-6.702,0.311-13.333,0.885-19.889
			L226,348.761l-124.591,71.933C57.485,379.439,30,320.873,30,256z M321.333,472.359C300.64,478.619,278.709,482,256,482
			c-48.227,0-92.968-15.194-129.706-41.033l195.039-112.606V472.359z M321.333,293.72L256,331.44l-65.333-37.72v-75.44L256,180.56
			l65.333,37.72V293.72z M351.333,460.877V235.6l124.716,72.005C460.099,375.633,413.328,431.914,351.333,460.877z M286,163.239
			l124.591-71.933C454.516,132.561,482,191.127,482,256c0,6.703-0.311,13.333-0.885,19.889L286,163.239z"/>
	</g>
</g>
<g>
</g>
<g>
</g>
<g>
</g>
<g>
</g>
<g>
</g>
<g>
</g>
<g>
</g>
<g>
</g>
<g>
</g>
<g>
</g>
<g>
</g>
<g>
</g>
<g>
</g>
<g>
</g>
<g>
</g>
</svg>
